<svg width="62" height="62" viewBox="0 0 62 62" fill="none" xmlns="http://www.w3.org/2000/svg">
<path d="M53.6864 34.474C53.6863 34.4738 53.6863 34.4737 53.6862 34.4734L45.2396 13.2647C45.0603 12.8141 44.5495 12.5941 44.0989 12.7734C44.0986 12.7735 44.0982 12.7736 44.0979 12.7738L9.83109 26.4185C9.69134 26.4789 9.57015 26.5753 9.4798 26.6978C9.19483 26.8459 9.01479 27.139 9.01172 27.4601V50.2935C9.01172 50.7785 9.40494 51.1717 9.88993 51.1717H46.7747C47.2597 51.1717 47.6529 50.7785 47.6529 50.2935V37.8229L53.1961 35.6151C53.6467 35.4354 53.8661 34.9245 53.6864 34.474ZM45.8965 49.4153H10.7681V28.3383H45.8965V49.4153ZM23.6646 26.5863L38.3693 20.7269C39.6817 22.1063 41.5002 22.8903 43.4041 22.8978L44.8707 26.5863H23.6646ZM47.6529 35.9365V27.4601C47.6529 26.9751 47.2597 26.5819 46.7747 26.5819H46.7606L44.8997 21.908C44.8791 21.8691 44.855 21.832 44.8277 21.7974C44.7335 21.3744 44.3418 21.0858 43.91 21.1212C42.1384 21.2826 40.4054 20.5364 39.3055 19.1382C39.0318 18.8004 38.5508 18.7164 38.1788 18.9415C38.1371 18.9464 38.0957 18.9541 38.0549 18.9643L20.1026 26.1129C19.8854 26.1981 19.7116 26.367 19.6205 26.5819H14.1686L43.9328 14.7304L51.7304 34.3101L47.6529 35.9365Z" fill="#231F20"/>
<path d="M13.1505 43.4856C14.8555 43.9896 16.1897 45.3221 16.6958 47.0265C16.8068 47.3985 17.149 47.6534 17.5371 47.6536C17.5827 47.6507 17.6279 47.6439 17.6724 47.6334C17.7118 47.6446 17.7521 47.6528 17.7927 47.6579H38.8697C38.9059 47.6532 38.9417 47.6459 38.9768 47.636C39.4156 47.7427 39.8578 47.4736 39.9646 47.0349C39.9649 47.0332 39.9654 47.0317 39.9657 47.03C40.4704 45.3239 41.8049 43.9894 43.511 43.4847C43.9248 43.3582 44.1819 42.9459 44.1135 42.5187C44.1252 42.4761 44.1337 42.4326 44.1389 42.3887V35.363C44.1338 35.319 44.125 35.2755 44.1126 35.233C44.1814 34.8057 43.9242 34.3931 43.5101 34.267C41.804 33.7624 40.4699 32.4274 39.9666 30.7208C39.8395 30.3042 39.4231 30.0464 38.9935 30.1183C38.9529 30.107 38.9115 30.0988 38.8697 30.0938H17.7927C17.7484 30.099 17.7046 30.1078 17.6618 30.1201C17.2347 30.052 16.8226 30.309 16.6958 30.7225C16.1907 32.4284 14.8564 33.7624 13.1505 34.267C12.7367 34.3935 12.4796 34.8058 12.548 35.233C12.5366 35.2757 12.5284 35.3191 12.5234 35.363V42.3887C12.5285 42.43 12.5367 42.4708 12.548 42.5108C12.476 42.9407 12.7337 43.3577 13.1505 43.4856ZM14.2799 35.7196C16.0433 35.0113 17.441 33.6136 18.1492 31.8502H38.5123C39.2209 33.6136 40.6189 35.0113 42.3825 35.7196V42.0321C40.6196 42.7412 39.2222 44.1386 38.5131 45.9015H18.1492C17.4402 44.1386 16.0427 42.7412 14.2799 42.0321V35.7196Z" fill="#231F20"/>
<path d="M28.3337 44.1479C31.2439 44.1479 33.6029 41.7888 33.6029 38.8786C33.6029 35.9685 31.2439 33.6094 28.3337 33.6094C25.4235 33.6094 23.0645 35.9685 23.0645 38.8786C23.0673 41.7876 25.4247 44.145 28.3337 44.1479ZM28.3337 35.3658C30.2738 35.3658 31.8465 36.9386 31.8465 38.8786C31.8465 40.8187 30.2738 42.3915 28.3337 42.3915C26.3936 42.3915 24.8209 40.8187 24.8209 38.8786C24.8209 36.9386 26.3936 35.3658 28.3337 35.3658Z" fill="#231F20"/>
<path d="M18.6728 40.1971C19.4003 40.1971 19.9901 39.6073 19.9901 38.8798C19.9901 38.1523 19.4003 37.5625 18.6728 37.5625C17.9453 37.5625 17.3555 38.1523 17.3555 38.8798C17.3555 39.6074 17.9453 40.1971 18.6728 40.1971ZM18.6728 38.4407C18.9153 38.4407 19.1119 38.6373 19.1119 38.8798C19.1119 39.1223 18.9153 39.3189 18.6728 39.3189C18.4303 39.3189 18.2337 39.1223 18.2337 38.8798C18.2337 38.6373 18.4303 38.4407 18.6728 38.4407Z" fill="#231F20"/>
<path d="M37.9931 40.1971C38.7206 40.1971 39.3104 39.6073 39.3104 38.8798C39.3104 38.1523 38.7206 37.5625 37.9931 37.5625C37.2656 37.5625 36.6758 38.1523 36.6758 38.8798C36.6758 39.6074 37.2656 40.1971 37.9931 40.1971ZM37.9931 38.4407C38.2356 38.4407 38.4322 38.6373 38.4322 38.8798C38.4322 39.1223 38.2356 39.3189 37.9931 39.3189C37.7506 39.3189 37.554 39.1223 37.554 38.8798C37.554 38.6373 37.7506 38.4407 37.9931 38.4407Z" fill="#231F20"/>
</svg>
