<svg xmlns="http://www.w3.org/2000/svg" width="41.436" height="41.436" viewBox="0 0 41.436 41.436">
  <g id="Group_1692" data-name="Group 1692" transform="translate(-864.251 -5325.25)">
    <g id="COD" transform="translate(874.3 5335.3)">
      <path id="Union_61" data-name="Union 61" d="M10.194,21.978a12.7,12.7,0,0,1-3.747-1.671,3.232,3.232,0,0,0-1.211-.455l-.185-.016c-.105.489-.18.548-.68.548H3.4c0,.129,0,.241,0,.353a.407.407,0,0,1-.427.438q-1.274.012-2.548,0A.4.4,0,0,1,0,20.733q0-2.682,0-5.364c0-.3.181-.458.521-.459.828,0,1.656,0,2.483,0,.4,0,.8,0,1.2,0a.325.325,0,0,0,.3-.151,3.333,3.333,0,0,1,1.772-1.32,3.289,3.289,0,0,1,3.411.984.793.793,0,0,0,.292.2c.943.327,1.887.645,2.833.963a2.155,2.155,0,0,1,1.5,1.287l1.658-.459c.5-.139,1-.281,1.5-.42a1.73,1.73,0,0,1,2.16.827,1.591,1.591,0,0,1-.18,1.808,2.221,2.221,0,0,1-1.013.727q-3.349,1.2-6.7,2.407c-.266.1-.549.145-.824.216ZM6.687,14.219a2.549,2.549,0,0,0-1.623,1.242.479.479,0,0,0-.04.247q0,1.47,0,2.94v.332a4.026,4.026,0,0,1,2.065.7c.249.151.505.295.766.427.528.267,1.053.543,1.6.778a2.994,2.994,0,0,0,2.345-.054c2.1-.788,4.222-1.527,6.335-2.284a1.362,1.362,0,0,0,.683-.492.809.809,0,0,0-.556-1.285,1.544,1.544,0,0,0-.568.054c-1.046.281-2.088.577-3.133.863a.344.344,0,0,0-.27.254,1.647,1.647,0,0,1-2.016,1.084c-1.3-.388-2.585-.806-3.871-1.229a.537.537,0,0,1-.295-.3.408.408,0,0,1,.536-.508c.58.173,1.156.362,1.734.545.679.215,1.357.435,2.037.646a.833.833,0,0,0,1-.365.809.809,0,0,0-.178-1.049,1.79,1.79,0,0,0-.571-.322c-1.042-.367-2.091-.711-3.133-1.078a1.021,1.021,0,0,1-.405-.285,2.47,2.47,0,0,0-1.9-.918A2.848,2.848,0,0,0,6.687,14.219ZM.87,15.769v4.539H2.545V17.644c0-.564,0-1.129-.005-1.693,0-.061-.07-.173-.109-.174-.3-.007-.6-.008-.9-.008Zm2.545,3.744h.734V15.786H3.415Zm3.538-2.177a.429.429,0,0,1-.4-.442.418.418,0,0,1,.43-.412.431.431,0,0,1,.421.427.442.442,0,0,1-.428.427Zm2.482-3.77L1.53,5.645c-.353-.354-.352-.516.006-.875Q3.763,2.539,5.99.309C6.1.2,6.222.1,6.339,0H6.6c.114.1.234.185.339.289.4.392.785.791,1.185,1.179a.278.278,0,0,0,.232.065C8.9,1.344,9.459,1.158,10,.94a3.57,3.57,0,0,1,2.946.075c.6.278,1.191.583,1.78.887.424.219.833.467,1.258.685a1.88,1.88,0,0,0,.9.2c.078-.439.178-.531.566-.534h1.078c0-.1,0-.162,0-.225,0-.446.132-.574.575-.574h.682c.522,0,1.044,0,1.566-.005a.561.561,0,0,1,.579.308V7.426a.588.588,0,0,1-.583.305c-.724-.006-1.448-.006-2.172-.006-.483,0-.965,0-1.448,0a.328.328,0,0,0-.3.146,3.454,3.454,0,0,1-2.121,1.417,1.58,1.58,0,0,1-.489.035.608.608,0,0,0-.552.232q-1.99,2.012-3.994,4.01a.626.626,0,0,1-.418.235A.627.627,0,0,1,9.435,13.566Zm-.514-1.8.911.914.927-.929a1.833,1.833,0,0,0-1.838.016Zm2.492-.628.98-.984a2.8,2.8,0,0,1-.435-2.14l-1.427-.483c-.034.093-.06.165-.086.237A2.44,2.44,0,1,1,7.539,4.536a.489.489,0,0,0,.255-.188,1.762,1.762,0,0,1,.99-.74c.056-.017.111-.038.158-.054L8.047,2.66c.011,0,0,0,0,0a2.734,2.734,0,0,1-3.084.034.153.153,0,0,0-.144.01c-.307.3-.607.6-.907.9a2.765,2.765,0,0,1,.028,3.161l4.36,4.37a2.908,2.908,0,0,1,1.56-.487A2.881,2.881,0,0,1,11.413,11.14Zm1.328-2.4.27.853L13.5,9.1l-.71-.383ZM6.616,7.249A1.591,1.591,0,0,0,8.265,8.49,1.525,1.525,0,0,0,9.679,7.233c-.954-.279-1.907-.583-2.123-1.779A1.565,1.565,0,0,0,6.616,7.249ZM8.53,4.8a.8.8,0,0,0,.136,1.037,1.735,1.735,0,0,0,.58.344c1.041.369,2.091.711,3.131,1.08a1.129,1.129,0,0,1,.439.308A2.458,2.458,0,0,0,15.3,8.4a2.582,2.582,0,0,0,1.564-1.225.31.31,0,0,0,.039-.163c0-1.066,0-2.131,0-3.2,0-.12-.042-.162-.159-.17a3.853,3.853,0,0,1-1.593-.514c-.865-.467-1.735-.928-2.618-1.36a2.54,2.54,0,0,0-1.959-.13c-.554.183-1.1.4-1.674.614.534.535,1.046,1.052,1.563,1.564a.464.464,0,0,0,.19.089c.59.19,1.181.376,1.772.564.38.121.762.237,1.138.37a.415.415,0,0,1,.261.538.432.432,0,0,1-.516.274c-.063-.014-.123-.039-.184-.058Q11.316,5.024,9.5,4.45a.911.911,0,0,0-.274-.043A.812.812,0,0,0,8.53,4.8ZM19.4,6.858h1.655V2.323H19.4Zm-1.624,0h.733V3.133h-.733ZM2.361,5.215l.932.935a1.732,1.732,0,0,0,0-1.864Zm3.179-3.2a1.7,1.7,0,0,0,1.864,0l-.93-.931ZM14.53,5.721a.43.43,0,0,1,.432-.415.424.424,0,0,1,0,.848h-.006A.428.428,0,0,1,14.53,5.721Z" transform="translate(0)"/>
    </g>
    <path id="Subtraction_32" data-name="Subtraction 32" d="M9493.218,1655.936a20.718,20.718,0,1,1,20.719-20.719A20.742,20.742,0,0,1,9493.218,1655.936Zm0-40.437a19.628,19.628,0,1,0,7.677,1.547A19.615,19.615,0,0,0,9493.218,1615.5Z" transform="translate(-8608.25 3710.75)" fill="#030504"/>
  </g>
</svg>
