<svg width="62" height="62" viewBox="0 0 62 62" fill="none" xmlns="http://www.w3.org/2000/svg">
<path d="M50.1601 27.3482L48.8958 24.8196C48.4488 23.9255 47.5504 23.3702 46.5512 23.3702H39.2432V17.2541C39.2432 15.8087 38.0673 14.6328 36.6219 14.6328H11.633C10.1876 14.6328 9.01172 15.8087 9.01172 17.2541V39.9713C9.01172 41.4166 10.1876 42.5926 11.633 42.5926H14.2542C14.2542 43.9342 14.7614 45.1593 15.5934 46.0875H9.8855C9.40291 46.0875 9.01172 46.4788 9.01172 46.9613C9.01172 47.4438 9.40291 47.835 9.8855 47.835H52.8736C53.3562 47.835 53.7474 47.4438 53.7474 46.9613C53.7474 46.4788 53.3562 46.0875 52.8736 46.0875H50.6607C51.4927 45.1592 51.9998 43.9342 51.9998 42.5926C51.9998 42.5428 51.9974 42.4932 51.996 42.4435C53.015 42.0838 53.7473 41.1118 53.7473 39.9713V35.1412C53.7473 34.1216 53.9492 35.0735 50.1601 27.3482ZM48.8386 28.6126L51.4598 33.8551H42.7381V28.6126H48.8386ZM10.7592 35.6026H12.5067V37.3501H10.7592V35.6026ZM19.4966 46.0875C17.5695 46.0875 16.0017 44.5196 16.0017 42.5926C16.0017 42.3545 16.0253 42.1203 16.0724 41.8925C16.4011 40.273 17.8411 39.0975 19.4966 39.0975C21.1521 39.0975 22.5922 40.2729 22.9208 41.8925C22.921 41.8938 22.9213 41.8949 22.9216 41.8962C22.968 42.1202 22.9915 42.3545 22.9915 42.5926C22.9915 44.5197 21.4237 46.0875 19.4966 46.0875ZM19.4966 37.3501C17.2579 37.3501 15.2822 38.7842 14.5538 40.845H11.633C11.1512 40.845 10.7592 40.453 10.7592 39.9712V39.0974H13.3804C13.863 39.0974 14.2542 38.7062 14.2542 38.2237V34.7287C14.2542 34.2462 13.863 33.855 13.3804 33.855H10.7592V17.2541C10.7592 16.7723 11.1512 16.3803 11.633 16.3803H36.6219C37.1037 16.3803 37.4957 16.7723 37.4957 17.2541C37.4957 17.9041 37.4957 38.7497 37.4957 40.8451H24.439C23.7093 38.7831 21.7344 37.3501 19.4966 37.3501ZM23.3999 46.0875C24.2319 45.1592 24.739 43.9342 24.739 42.5926C25.4099 42.5926 41.2292 42.5926 41.5148 42.5926C41.5148 43.9342 42.0221 45.1593 42.854 46.0875H23.3999ZM46.7573 46.0875C44.8302 46.0875 43.2624 44.5196 43.2624 42.5926C43.2624 42.3545 43.286 42.1203 43.3332 41.8925C43.6618 40.273 45.1019 39.0975 46.7573 39.0975C48.4128 39.0975 49.8529 40.2729 50.1815 41.8925C50.1817 41.8938 50.182 41.8949 50.1823 41.8962C50.2287 42.1202 50.2523 42.3545 50.2523 42.5926C50.2523 44.5197 48.6844 46.0875 46.7573 46.0875ZM51.9998 39.9713C51.9998 40.2619 51.8566 40.5191 51.6377 40.6781C50.8626 38.7061 48.9342 37.3502 46.7573 37.3502C44.5186 37.3502 42.5429 38.7843 41.8145 40.8451H39.2431V25.1177H46.5511C46.8842 25.1177 47.1836 25.3029 47.3327 25.601L47.9648 26.8652H41.8644C41.3818 26.8652 40.9907 27.2564 40.9907 27.7389V34.7289C40.9907 35.2114 41.3818 35.6027 41.8644 35.6027H51.9998V39.9713Z" fill="#231F20"/>
<path d="M33.1271 19.875H22.1179C21.6353 19.875 21.2441 20.2663 21.2441 20.7488C21.2441 21.2313 21.6353 21.6226 22.1179 21.6226H33.1271C33.6097 21.6226 34.0008 21.2313 34.0008 20.7488C34.0008 20.2663 33.6096 19.875 33.1271 19.875Z" fill="#231F20"/>
<path d="M33.1282 23.3672H25.614C25.1314 23.3672 24.7402 23.7585 24.7402 24.241C24.7402 24.7235 25.1314 25.1147 25.614 25.1147H33.1282C33.6108 25.1147 34.002 24.7235 34.002 24.241C34.002 23.7585 33.6107 23.3672 33.1282 23.3672Z" fill="#231F20"/>
<path d="M46.7592 40.8438C45.7956 40.8438 45.0117 41.6277 45.0117 42.5912C45.0117 43.5548 45.7957 44.3387 46.7592 44.3387C47.7228 44.3387 48.5066 43.5547 48.5066 42.5912C48.5066 41.6276 47.7228 40.8438 46.7592 40.8438Z" fill="#231F20"/>
<path d="M19.4975 40.8438C18.5339 40.8438 17.75 41.6277 17.75 42.5912C17.75 43.5548 18.534 44.3387 19.4975 44.3387C20.4611 44.3387 21.2449 43.5547 21.2449 42.5912C21.2449 41.6276 20.4611 40.8438 19.4975 40.8438Z" fill="#231F20"/>
</svg>
