<svg width="420" height="137" viewBox="0 0 420 137" fill="none" xmlns="http://www.w3.org/2000/svg">
<g clip-path="url(#clip0_154_3465)">
<g opacity="0.8">
<g clip-path="url(#clip1_154_3465)">
<path d="M353.514 135C353.514 136.107 352.547 137 351.348 137L345.661 137C344.463 137 343.495 136.107 343.495 135C343.495 133.893 344.463 133 345.661 133L351.348 133C352.547 133 353.514 133.893 353.514 135ZM336.465 135C336.465 136.107 335.498 137 334.3 137L328.612 137C327.414 137 326.447 136.107 326.447 135C326.447 133.893 327.414 133 328.612 133L334.3 133C335.498 133 336.465 133.893 336.465 135ZM319.417 135C319.417 136.107 318.45 137 317.251 137L311.564 137C310.366 137 309.398 136.107 309.398 135C309.398 133.893 310.366 133 311.564 133L317.251 133C318.45 133 319.417 133.893 319.417 135ZM302.368 135C302.368 136.107 301.401 137 300.203 137L294.515 137C293.317 137 292.35 136.107 292.35 135C292.35 133.893 293.317 133 294.515 133L300.203 133C301.401 133 302.368 133.893 302.368 135ZM285.32 135C285.32 136.107 284.353 137 283.154 137L277.467 137C276.269 137 275.301 136.107 275.301 135C275.301 133.893 276.269 133 277.467 133L283.154 133C284.353 133 285.32 133.893 285.32 135ZM268.271 135C268.271 136.107 267.304 137 266.106 137L260.418 137C259.22 137 258.253 136.107 258.253 135C258.253 133.893 259.22 133 260.418 133L266.106 133C267.304 133 268.271 133.893 268.271 135ZM251.223 135C251.223 136.107 250.256 137 249.057 137L243.37 137C242.172 137 241.204 136.107 241.204 135C241.204 133.893 242.172 133 243.37 133L249.057 133C250.256 133 251.223 133.893 251.223 135ZM234.174 135C234.174 136.107 233.207 137 232.009 137L226.321 137C225.123 137 224.156 136.107 224.156 135C224.156 133.893 225.123 133 226.321 133L232.009 133C233.207 133 234.174 133.893 234.174 135ZM217.126 135C217.126 136.107 216.159 137 214.96 137L209.273 137C208.075 137 207.107 136.107 207.107 135C207.107 133.893 208.075 133 209.273 133L214.96 133C216.159 133 217.126 133.893 217.126 135ZM200.077 135C200.077 136.107 199.11 137 197.912 137L192.224 137C191.026 137 190.059 136.107 190.059 135C190.059 133.893 191.026 133 192.224 133L197.912 133C199.11 133 200.077 133.893 200.077 135ZM183.029 135C183.029 136.107 182.062 137 180.863 137L175.176 137C173.978 137 173.01 136.107 173.01 135C173.01 133.893 173.978 133 175.176 133L180.863 133C182.062 133 183.029 133.893 183.029 135ZM165.98 135C165.98 136.107 165.013 137 163.815 137L158.127 137C156.929 137 155.962 136.107 155.962 135C155.962 133.893 156.929 133 158.127 133L163.815 133C165.013 133 165.98 133.893 165.98 135ZM148.932 135C148.932 136.107 147.965 137 146.766 137L141.079 137C139.881 137 138.913 136.107 138.913 135C138.913 133.893 139.881 133 141.079 133L146.766 133C147.965 133 148.932 133.893 148.932 135ZM131.883 135C131.883 136.107 130.916 137 129.718 137L124.03 137C122.832 137 121.865 136.107 121.865 135C121.865 133.893 122.832 133 124.03 133L129.718 133C130.916 133 131.883 133.893 131.883 135ZM114.835 135C114.835 136.107 113.868 137 112.669 137L106.982 137C105.784 137 104.816 136.107 104.816 135C104.816 133.893 105.784 133 106.982 133L112.669 133C113.868 133 114.835 133.893 114.835 135ZM97.7863 135C97.7863 136.107 96.8191 137 95.6209 137L89.9333 137C88.7351 137 87.7679 136.107 87.7679 135C87.7679 133.893 88.7351 133 89.9333 133L95.6209 133C96.8191 133 97.7863 133.893 97.7863 135ZM80.7377 135C80.7377 136.107 79.7706 137 78.5724 137L72.8848 137C71.6866 137 70.7194 136.107 70.7194 135C70.7194 133.893 71.6866 133 72.8848 133L78.5724 133C79.7706 133 80.7377 133.893 80.7377 135ZM63.6893 135C63.6893 136.107 62.7221 137 61.5239 137L55.8363 137C54.6381 137 53.6709 136.107 53.6709 135C53.6709 133.893 54.6381 133 55.8363 133L61.5239 133C62.7221 133 63.6893 133.893 63.6893 135ZM46.6407 135C46.6407 136.107 45.6736 137 44.4754 137L38.7877 137C37.5896 137 36.6224 136.107 36.6224 135C36.6224 133.893 37.5896 133 38.7877 133L44.4754 133C45.6736 133 46.6407 133.893 46.6407 135ZM29.5922 135C29.5922 136.107 28.625 137 27.4269 137L21.7392 137C20.5411 137 19.5739 136.107 19.5739 135C19.5739 133.893 20.5411 133 21.7392 133L27.4269 133C28.625 133 29.5922 133.893 29.5922 135ZM12.5437 135C12.5437 136.107 11.5765 137 10.3784 137L4.69074 137C3.49258 137 2.52539 136.107 2.52539 135C2.52539 133.893 3.49258 133 4.69074 133L10.3784 133C11.5765 133 12.5437 133.893 12.5437 135Z" fill="#47727E"/>
<path d="M368.663 135C368.663 136.107 367.648 137 366.391 137L363.36 137C362.103 137 361.088 136.107 361.088 135C361.088 133.893 362.103 133 363.36 133L366.391 133C367.648 133 368.663 133.893 368.663 135Z" fill="#47727E"/>
<path d="M381.29 135C381.29 136.107 380.275 137 379.018 137L375.987 137C374.73 137 373.715 136.107 373.715 135C373.715 133.893 374.73 133 375.987 133L379.018 133C380.275 133 381.29 133.893 381.29 135Z" fill="#47727E"/>
<path d="M517.645 135C517.645 136.107 516.682 137 515.489 137L509.827 137C508.634 137 507.672 136.107 507.672 135C507.672 133.893 508.634 133 509.827 133L515.489 133C516.682 133 517.645 133.893 517.645 135ZM500.673 135C500.673 136.107 499.71 137 498.517 137L492.855 137C491.662 137 490.699 136.107 490.699 135C490.699 133.893 491.662 133 492.855 133L498.517 133C499.71 133 500.673 133.893 500.673 135ZM483.7 135C483.7 136.107 482.738 137 481.545 137L475.883 137C474.69 137 473.727 136.107 473.727 135C473.727 133.893 474.69 133 475.883 133L481.545 133C482.738 133 483.7 133.893 483.7 135ZM466.728 135C466.728 136.107 465.765 137 464.572 137L458.91 137C457.717 137 456.755 136.107 456.755 135C456.755 133.893 457.717 133 458.91 133L464.572 133C465.765 133 466.728 133.893 466.728 135ZM449.756 135C449.756 136.107 448.793 137 447.6 137L441.938 137C440.745 137 439.782 136.107 439.782 135C439.782 133.893 440.745 133 441.938 133L447.6 133C448.793 133 449.756 133.893 449.756 135ZM432.783 135C432.783 136.107 431.821 137 430.628 137L424.966 137C423.773 137 422.81 136.107 422.81 135C422.81 133.893 423.773 133 424.966 133L430.628 133C431.821 133 432.783 133.893 432.783 135ZM415.811 135C415.811 136.107 414.848 137 413.655 137L407.993 137C406.8 137 405.838 136.107 405.838 135C405.838 133.893 406.8 133 407.993 133L413.655 133C414.848 133 415.811 133.893 415.811 135ZM398.839 135C398.839 136.107 397.876 137 396.683 137L391.021 137C389.828 137 388.865 136.107 388.865 135C388.865 133.893 389.828 133 391.021 133L396.683 133C397.876 133 398.839 133.893 398.839 135Z" fill="#47727E"/>
</g>
</g>
<g opacity="0.8" clip-path="url(#clip2_154_3465)">
<path d="M291.812 56.7071C282.003 54.597 273.441 65.2416 269.214 71.8366C269.686 69.5739 270.038 67.0756 270.239 64.3078C272.577 31.9184 242.269 18.3579 237.584 17.9426C236.849 17.8775 236.125 17.6283 235.426 17.2579C232.7 13.3207 230.674 10.7257 229.229 9.0287C226.812 5.91973 219.604 -1.70342 209.285 1.98694C209.285 1.98694 198.048 6.15768 197.908 15.2309L200.558 16.8C200.558 16.8 202.524 18.1199 202.212 19.2356C202.212 19.2356 199.994 28.2078 204.072 30.3605L209.492 33.6648C209.492 33.6648 212.77 34.8949 219.366 28.4839C219.366 28.4839 223.423 25.9765 225.561 28.5602L225.57 28.5221C225.926 29.2 226.198 29.952 226.4 30.7107C226.26 30.7197 226.182 30.7376 226.182 30.7646C226.089 32.9352 216.622 52.267 216.622 52.267L212.008 52.5363C205.379 52.8933 193.661 53.5757 193.661 53.5757C192.309 54.0381 191.307 54.386 190.559 54.6733L190.563 54.6329C190.563 54.6329 184.956 55.9573 184.273 57.1538C184.273 57.1538 184.19 57.2705 184.117 57.4299C183.923 57.4164 183.727 57.4231 183.527 57.4568C182.516 57.6252 181.542 58.1953 180.632 59.1538C180.053 59.7622 179.612 60.4311 179.289 61.1921C178.304 63.5042 178.567 66.3123 178.988 68.3371L175.875 68.7097L173.624 88.2076C169.646 85.4308 161.351 80.232 157.506 77.8391C158.356 75.7313 157.626 73.2508 155.655 71.9848L150.533 80.0861C152.177 81.1434 154.219 81.0536 155.742 80.0277C159.205 82.9077 170.254 92.0865 172.933 94.1898L172.463 98.264L200.947 94.8543L199.538 90.9911C199.769 90.9776 200.001 90.9596 200.232 90.9305C202.228 90.6925 204.216 89.9562 205.479 89.2581C209.594 86.9842 211.405 82.9571 210.325 78.4878C209.714 75.9625 208.581 73.5225 207.049 71.4326C206.434 70.5931 205.826 69.9174 205.196 69.3674C206.111 68.2563 206.722 67.1496 206.722 67.1496C206.722 67.1496 226.559 66.2383 227.218 67.648C227.877 69.0577 228.393 69.0173 228.65 68.6873C228.71 68.6087 229.698 66.7905 231.188 64.0362C233.128 69.9735 235.059 74.7279 235.522 75.206C236.366 76.0747 237.014 77.0736 237.484 78.1848C238.472 80.5216 238.132 82.791 236.067 84.4274C234.731 85.4869 233.584 86.7462 232.524 88.0796C231.467 89.4108 230.462 90.789 229.358 92.0798C227.979 93.6892 226.821 95.4334 226.031 97.3976C225.004 99.9453 224.352 102.61 223.835 105.308C223.73 105.856 223.708 106.426 223.987 106.953C224.211 107.014 224.243 106.772 224.381 106.691C224.71 107.063 224.708 107.104 224.334 107.512C224.263 107.598 224.198 107.683 224.263 107.802C224.303 107.955 224.332 108.112 224.385 108.26C225.387 111.001 226.815 113.513 228.451 115.912C228.683 116.251 228.852 116.572 228.768 117.014C228.687 117.43 228.703 117.863 228.665 118.287C228.52 119.906 228.376 121.524 228.389 123.154C228.398 124.085 228.247 124.26 227.325 124.305C227.14 124.314 226.955 124.292 226.77 124.294C225.906 124.308 225.129 123.917 224.303 123.764C224.147 123.675 223.906 123.915 223.802 123.632C222.973 123.27 222.085 123.113 221.216 122.898C219.223 122.402 217.201 122.249 215.157 122.483C214.571 122.55 214.008 122.687 213.518 123.03C213.142 123.293 213.102 123.542 213.396 123.897C213.591 124.135 213.845 124.323 214.115 124.575C213.734 124.887 213.369 125.188 212.999 125.482C212.83 125.616 212.69 125.746 212.656 125.989C212.554 126.727 212.919 127.358 213.612 127.646C213.97 127.794 214.337 127.785 214.705 127.769C215.052 127.755 215.259 127.789 215.335 128.238C215.462 128.979 215.988 129.367 216.722 129.19C217.86 128.916 218.989 129.156 220.118 129.093C220.526 129.071 220.724 129.248 220.856 129.607C220.439 129.868 220.036 130.081 219.762 130.454C219.299 131.082 219.526 131.668 220.292 131.803C220.635 131.863 220.996 131.866 221.305 131.702C222.069 131.295 222.826 131.446 223.512 131.803C224.594 132.364 225.735 132.46 226.906 132.404C227.572 132.373 228.22 132.458 228.874 132.523C230.11 132.642 231.357 132.797 232.538 132.216C232.734 132.119 232.943 132.11 233.157 132.09C233.863 132.029 234.529 132.171 235.145 132.51C235.526 132.719 235.954 132.793 236.263 132.517C236.544 132.265 236.764 132.335 237.052 132.384C238.145 132.568 239.238 132.831 240.338 132.885C242.743 133.001 245.157 132.961 247.562 133.08C248.6 133.132 249.344 132.73 250.001 132.025C250.272 131.735 250.564 131.441 250.751 131.098C251.248 130.196 251.956 129.484 252.675 128.775C253.352 128.106 253.55 127.286 253.426 126.359C253.299 125.412 252.8 124.671 252.161 124.014C250.562 122.37 249.15 120.572 247.812 118.714C247.331 118.045 246.885 117.349 246.574 116.579C246.182 115.616 245.705 114.696 245.189 113.795C244.843 113.196 244.5 112.581 243.979 112.121C243.672 111.851 243.61 111.573 243.679 111.212C243.719 111.003 243.748 110.792 243.774 110.579C243.944 109.203 244.222 107.833 244.155 106.444C244.117 105.651 244.389 105.043 244.883 104.493C245.759 103.514 246.865 102.886 248.104 102.536C248.903 102.311 249.644 101.988 250.366 101.597C251.39 101.043 252.412 100.484 253.417 99.8937C254.379 99.3303 255.394 98.7915 256.125 97.9543C256.897 97.0698 257.871 96.5176 258.792 95.8666C259.443 95.4087 260.093 94.9463 260.719 94.4547C262.184 93.3009 263.603 92.0753 264.645 90.5152C265.653 89.0045 266.803 87.5319 266.927 85.5924C266.896 85.5049 266.863 85.4151 266.831 85.3276C267.088 84.6923 267.292 84.066 267.433 83.4487C270.08 80.2746 272.327 76.8447 273.543 74.6942C276.213 69.969 280.478 63.3852 289.86 61.3245C299.241 59.2638 303.938 70.4202 303.938 70.4202C305.1 82.1333 297.714 85.8506 297.714 85.8506C293.16 89.633 288.013 86.7934 286.573 88.6992C285.13 90.605 288.336 92.1426 288.336 92.1426C307.401 95.5636 309.013 75.0781 309.013 75.0781C308.24 57.8878 291.824 56.7093 291.824 56.7093L291.812 56.7071ZM201.188 10.2925C201.094 10.4474 200.999 10.6045 200.905 10.7594C200.664 11.1567 200.106 10.7033 200.342 10.3127C200.435 10.1578 200.531 10.0007 200.624 9.84579C200.865 9.44847 201.424 9.90191 201.188 10.2925ZM217.007 2.90055C217.896 3.06891 218.787 3.23502 219.675 3.40337C220.127 3.48867 220.023 4.2025 219.568 4.1172C218.68 3.94885 217.789 3.78274 216.901 3.61438C216.449 3.52908 216.553 2.81525 217.007 2.90055ZM203.84 6.18686C204.35 5.85688 204.86 5.5269 205.372 5.19692C205.757 4.94776 206.185 5.5269 205.797 5.77831C205.287 6.10829 204.778 6.43827 204.265 6.76825C203.88 7.01741 203.453 6.43827 203.84 6.18686ZM208.623 7.07578C208.597 7.09598 208.57 7.11618 208.541 7.13638C208.169 7.41249 207.744 6.8311 208.116 6.555C208.142 6.53479 208.169 6.51459 208.198 6.49439C208.57 6.21828 208.995 6.79967 208.623 7.07578ZM212.376 3.6054C211.458 3.776 210.541 3.94885 209.625 4.11945C209.171 4.20475 209.098 3.48643 209.55 3.40113C210.467 3.23053 211.385 3.05768 212.3 2.88708C212.754 2.80178 212.828 3.5201 212.376 3.6054ZM213.507 5.66608C213.048 5.70873 212.97 4.99041 213.431 4.94776C214.182 4.87817 214.934 4.87368 215.687 4.93204C216.148 4.96796 216.037 5.68179 215.58 5.64587C214.888 5.592 214.199 5.60098 213.509 5.66608H213.507ZM221.192 12.856C220.925 13.7068 220.375 14.4273 219.698 14.9391C219.575 14.9279 219.66 14.8291 219.66 14.8291H219.655C220.194 14.2141 220.584 13.4957 220.762 12.737C220.978 11.8122 220.677 10.9367 220.127 10.2005C219.593 9.45296 218.854 8.90524 217.914 8.8379C217.19 8.78852 216.446 8.92545 215.747 9.21726C215.747 9.21726 215.556 9.23073 215.658 9.10278C216.317 8.66281 217.105 8.3912 217.927 8.38671C218.98 8.35977 220.098 8.83117 220.755 9.7358C221.417 10.6359 221.53 11.8526 221.192 12.8582V12.856ZM222.708 6.0185C222.334 5.74464 222.78 5.17672 223.151 5.45058C223.693 5.8479 224.234 6.24746 224.775 6.64478C225.149 6.91864 224.704 7.48656 224.332 7.21271C223.791 6.81539 223.249 6.41582 222.708 6.0185ZM224.991 11.1141C224.445 10.8582 223.951 10.5192 223.526 10.0882C223.203 9.76274 223.644 9.19257 223.969 9.5203C224.354 9.90864 224.781 10.2184 225.274 10.4496C225.692 10.6449 225.409 11.3094 224.991 11.1118V11.1141ZM210.521 54.0269C211.173 54.157 211.785 53.9752 212.304 53.5712C212.736 53.2367 213.155 53.9775 212.732 54.3074C212.03 54.8507 211.155 55.0213 210.296 54.8484C209.761 54.7407 209.988 53.9213 210.521 54.0269ZM205.682 53.762H206.993C207.539 53.762 207.537 54.6127 206.993 54.6127H205.682C205.136 54.6127 205.138 53.762 205.682 53.762ZM184.471 67.6727L181.253 68.0587C180.81 66.0564 180.672 63.7556 181.38 62.0967C181.598 61.5849 181.881 61.1562 182.273 60.7431C182.825 60.1617 183.384 59.8093 183.889 59.7263C183.943 59.7173 183.963 59.7218 184.012 59.7577C183.796 59.9911 183.647 60.2066 183.596 60.3974C183.596 60.3974 182.976 61.9957 184.687 61.3537C184.76 61.7218 184.82 62.1528 184.856 62.6579C184.97 64.2382 184.838 66.465 184.473 67.6727H184.471ZM185.809 58.3143C185.758 58.2559 185.7 58.2021 185.644 58.1482L186.617 57.7868C186.348 57.9552 186.074 58.1325 185.809 58.3121V58.3143ZM186.684 59.9732L188.069 59.0102C188.076 59.1157 188.087 59.2167 188.103 59.3177C187.631 59.6297 187.17 59.9575 186.778 60.274C186.749 60.1685 186.713 60.0742 186.682 59.9754L186.684 59.9732ZM205.196 72.7929C206.55 74.6403 207.55 76.7953 208.089 79.0243C208.922 82.4678 207.566 85.4578 204.366 87.2266C202.909 88.0325 200.551 88.762 198.691 88.6947L193.425 74.2497C194.084 73.491 194.924 72.6313 195.89 71.8636C195.736 72.124 195.638 72.3574 195.627 72.546C195.627 72.546 195.336 74.2655 196.919 73.2419L199.734 70.2743C199.76 70.3776 199.792 70.4741 199.829 70.5684C198.843 71.5605 197.945 72.6223 197.903 73.2329C197.903 73.2329 197.611 74.9524 199.195 73.9287L201.393 71.6144C201.569 71.6234 201.758 71.6234 201.972 71.6032C202.502 71.5538 203.027 71.3091 203.524 70.959C204.081 71.4146 204.628 72.014 205.198 72.7907L205.196 72.7929ZM204.107 63.8117C202.876 64.539 201.965 65.0845 201.288 65.5177L201.284 65.4773C201.284 65.4773 196.104 67.8949 195.636 69.2103C194.456 69.9825 193.405 70.923 192.539 71.8209L190.75 66.9184L186.887 67.3808C187.23 65.5581 187.194 63.3785 187.132 62.4895C187.127 62.4132 187.116 62.3414 187.11 62.2673L189.423 60.6578C189.595 60.7027 189.78 60.7409 189.993 60.7656C192.401 61.0305 195.529 57.3603 195.529 57.3603C195.529 57.3603 209.236 59.5624 213.941 61.1696C208.853 62.5322 204.105 63.8117 204.105 63.8117H204.107ZM217.751 63.0777H216.963C216.417 63.0777 216.42 62.2269 216.963 62.2269H217.751C218.297 62.2269 218.295 63.0777 217.751 63.0777ZM232.607 32.5424C232.767 32.0486 232.93 31.5525 233.09 31.0586C233.259 30.5401 234.074 30.7623 233.905 31.2853C233.816 31.5592 233.727 31.8353 233.636 32.1092C233.671 32.2102 233.669 32.3269 233.604 32.4481C233.529 32.5895 233.453 32.731 233.377 32.8724C233.15 33.2966 232.455 33.0026 232.604 32.5446L232.607 32.5424ZM234.168 41.3373C234.081 41.6897 233.992 42.0422 233.905 42.3946C233.774 42.9266 232.959 42.6999 233.09 42.1679C233.177 41.8154 233.266 41.463 233.353 41.1106C233.484 40.5786 234.299 40.8053 234.168 41.3373ZM227.592 9.4799C227.979 9.78294 228.367 10.0837 228.754 10.3868C229.119 10.6719 228.676 11.2375 228.311 10.9547C227.924 10.6517 227.536 10.3509 227.149 10.0478C226.783 9.76274 227.227 9.19706 227.592 9.4799ZM222.637 43.6539L223.425 41.802C223.639 41.2991 224.367 41.7346 224.156 42.233C223.893 42.8503 223.63 43.4676 223.367 44.0849C223.154 44.5877 222.425 44.1522 222.637 43.6539ZM219.956 49.4251C219.956 48.8752 220.8 48.8774 220.8 49.4251V49.9549C220.8 50.5048 219.956 50.5026 219.956 49.9549V49.4251ZM224.577 62.5479H223.002C222.457 62.5479 222.459 61.6971 223.002 61.6971H224.577C225.122 61.6971 225.12 62.5479 224.577 62.5479ZM226.336 57.8497L221.871 59.0528C221.25 59.2167 220.579 59.3963 219.88 59.5826C221.891 57.1919 224.646 53.9079 227.523 50.4869C227.616 50.9673 227.719 51.4544 227.826 51.946C226.988 55.3266 226.336 57.8497 226.336 57.8497ZM230.217 57.3311C229.694 58.0382 229.168 58.7431 228.645 59.4501C228.322 59.8834 227.59 59.4591 227.915 59.0192C228.438 58.3121 228.964 57.6072 229.487 56.9001C229.81 56.4669 230.542 56.8911 230.217 57.3311ZM229.585 16.1243C229.46 15.947 229.347 15.7629 229.237 15.5744C229.224 15.5542 229.213 15.534 229.2 15.5138C229.18 15.4823 229.166 15.4532 229.155 15.4217C228.923 15.002 228.73 14.5642 228.574 14.1063C228.398 13.5855 229.215 13.3633 229.389 13.8796C229.54 14.3241 229.736 14.7438 229.97 15.1456C230.086 15.3275 230.202 15.5093 230.315 15.6933C230.611 16.1625 229.894 16.5643 229.585 16.1243ZM231.547 51.6542C231.46 52.2715 231.371 52.8888 231.284 53.5061C231.208 54.0471 230.393 53.8158 230.469 53.2794C230.556 52.662 230.645 52.0447 230.732 51.4274C230.807 50.8865 231.622 51.1177 231.547 51.6542ZM232.075 44.7763L231.832 45.5754C231.674 46.0984 230.859 45.8739 231.017 45.3487C231.097 45.0815 231.179 44.8144 231.259 44.5495C231.418 44.0265 232.233 44.251 232.075 44.7763ZM231.814 38.5695C231.979 38.0061 232.144 37.4427 232.308 36.877C232.462 36.3517 233.277 36.5762 233.123 37.1037C233.041 37.3821 232.961 37.6627 232.878 37.941C232.892 38.0061 232.89 38.0802 232.861 38.161C232.783 38.372 232.707 38.583 232.629 38.794C232.444 39.3013 231.658 39.1015 231.814 38.5673V38.5695ZM234.419 48.7405L233.629 51.3848C233.473 51.9101 232.656 51.6833 232.814 51.1581C233.077 50.2759 233.342 49.3959 233.604 48.5138C233.76 47.9885 234.577 48.2152 234.419 48.7405ZM234.39 19.2176C234.279 19.4084 234.003 19.4982 233.811 19.3702C233.549 19.1929 233.286 19.0178 233.023 18.8405C232.834 18.7125 232.751 18.4656 232.872 18.2568C232.983 18.066 233.259 17.9763 233.451 18.1042L234.239 18.634C234.428 18.7619 234.511 19.0088 234.39 19.2176ZM222.984 126.047C222.875 125.937 222.768 125.829 222.659 125.72C222.189 125.246 222.918 124.512 223.387 124.985C223.497 125.095 223.603 125.203 223.713 125.313C224.182 125.787 223.454 126.521 222.984 126.047ZM226.365 127.637C225.719 127.769 225.443 126.801 226.091 126.635C226.706 126.478 227.32 126.321 227.933 126.164C228.576 126 228.85 127.001 228.206 127.165C227.895 127.246 227.583 127.325 227.271 127.405C227.218 127.446 227.149 127.477 227.066 127.495C226.832 127.542 226.599 127.589 226.363 127.639L226.365 127.637ZM228.67 128.727C228.447 129.051 228.224 129.376 228.002 129.699C227.843 129.931 227.552 130.036 227.296 129.886C227.068 129.751 226.953 129.405 227.111 129.174C227.333 128.851 227.556 128.525 227.779 128.202C227.937 127.971 228.229 127.865 228.485 128.016C228.712 128.151 228.828 128.496 228.67 128.727ZM245.269 126.411C245.322 126.501 245.384 126.581 245.449 126.662C245.574 126.7 245.685 126.786 245.77 126.898C245.854 127.01 245.939 127.122 246.021 127.235C246.329 127.648 245.725 128.238 245.315 127.946C244.935 127.672 244.618 127.345 244.378 126.936C244.037 126.359 244.93 125.838 245.269 126.411ZM239.399 121.787C239.615 121.897 239.833 122.004 240.049 122.114C240.298 122.24 240.367 122.595 240.234 122.826C240.087 123.08 239.777 123.138 239.528 123.012C239.312 122.902 239.094 122.795 238.878 122.685C238.628 122.559 238.559 122.204 238.693 121.973C238.84 121.719 239.149 121.661 239.399 121.787ZM238.907 84.937C238.682 85.1031 238.33 84.9729 238.201 84.7507C238.049 84.4903 238.161 84.2052 238.385 84.0391C238.762 83.7607 239.138 83.4824 239.514 83.204C239.637 83.112 239.797 83.112 239.94 83.1659C239.873 83.5587 239.795 83.9515 239.708 84.3421C239.441 84.5397 239.174 84.7372 238.904 84.937H238.907ZM240.225 78.8358C240.249 78.8919 240.265 78.9525 240.285 79.0086C240.289 79.5586 240.274 80.1063 240.238 80.654C240.154 80.7124 240.053 80.746 239.953 80.746C239.661 80.746 239.454 80.5059 239.439 80.2275C239.428 80.0614 239.428 79.8818 239.399 79.7224C239.332 79.6326 239.283 79.5249 239.274 79.4059C239.263 79.251 239.254 79.1141 239.281 78.9592C239.31 78.7886 239.481 78.636 239.641 78.5956C239.846 78.5439 240.131 78.6225 240.225 78.8335V78.8358ZM237.962 20.1671C238.662 20.1514 239.29 20.3871 239.84 20.8136C240.02 20.955 239.987 21.2715 239.84 21.4152C239.661 21.5903 239.423 21.5566 239.243 21.4152C238.875 21.1279 238.423 21.0067 237.965 21.0179C237.419 21.0314 237.421 20.1784 237.965 20.1671H237.962ZM236.795 37.3686L236.533 38.1632C236.459 38.3832 236.243 38.5246 236.014 38.4618C235.802 38.4034 235.646 38.1565 235.718 37.9388L235.98 37.1441C236.054 36.9241 236.27 36.7827 236.499 36.8456C236.711 36.9039 236.867 37.1509 236.795 37.3686ZM237.392 73.7604C237.096 73.1633 237.985 72.638 238.283 73.2351C238.499 73.6729 238.717 74.1106 238.933 74.5483C239.229 75.1454 238.341 75.6707 238.043 75.0736C237.826 74.6358 237.608 74.1981 237.392 73.7604ZM237.319 86.9999C237.593 86.7575 237.855 86.5038 238.125 86.2569C238.332 86.0683 238.648 86.0481 238.853 86.2569C239.042 86.4477 239.06 86.8046 238.853 86.9909C238.657 87.1683 238.466 87.3501 238.272 87.5297C238.238 87.5588 238.205 87.5903 238.172 87.6195C238.147 87.6868 238.105 87.7519 238.04 87.8125C237.891 87.9517 237.746 88.1021 237.55 88.1694C237.339 88.2412 237.074 88.1223 236.969 87.9315C236.76 87.5544 237.056 87.2334 237.319 87.0022V86.9999ZM236.381 90.1021C236.564 89.4601 237.559 89.734 237.374 90.3782C237.301 90.6364 237.261 90.8945 237.254 91.1527C237.027 91.5994 236.789 92.0416 236.539 92.4793C236.448 92.4187 236.375 92.3244 236.341 92.1853C236.174 91.4916 236.183 90.789 236.381 90.1021ZM234.388 87.6913C234.618 87.1885 234.989 86.7799 235.439 86.4657C235.669 86.3063 236.012 86.423 236.145 86.652C236.292 86.9079 236.19 87.2042 235.96 87.3635C235.813 87.4668 235.689 87.588 235.577 87.725C235.566 87.7766 235.548 87.826 235.517 87.8709C235.437 87.9853 235.359 88.0998 235.279 88.2143C234.896 88.7665 234.112 88.2974 234.388 87.689V87.6913ZM235.611 95.6107C235.35 95.7297 234.989 95.6579 234.878 95.301C234.709 94.7555 234.542 94.21 234.373 93.6646C234.174 93.0248 235.17 92.7532 235.366 93.3884C235.482 93.7588 235.595 94.1315 235.711 94.5018C235.631 94.7173 235.555 94.9373 235.475 95.1528C235.535 95.3055 235.577 95.4581 235.611 95.6085V95.6107ZM235.03 90.495C234.696 91.0225 234.442 91.5747 234.268 92.1763C234.081 92.8183 233.088 92.5422 233.275 91.9002C233.473 91.22 233.762 90.569 234.141 89.9719C234.497 89.4085 235.388 89.9315 235.032 90.4972L235.03 90.495ZM231.231 107.912C230.796 107.638 230.362 107.364 229.928 107.093C229.367 106.738 229.883 105.84 230.449 106.195C230.883 106.469 231.317 106.742 231.752 107.016C232.313 107.371 231.796 108.269 231.231 107.914V107.912ZM231.001 111.757C230.338 111.757 230.338 110.718 231.001 110.718C231.665 110.718 231.665 111.757 231.001 111.757ZM229.509 99.0946V97.6175C229.509 96.9486 230.54 96.9486 230.54 97.6175V99.0946C230.54 99.7635 229.509 99.7635 229.509 99.0946ZM232.564 108.655C232.847 108.801 233.128 108.949 233.411 109.095C233.453 109.106 233.497 109.122 233.542 109.147C233.696 109.232 233.849 109.317 234.001 109.402C234.584 109.728 234.068 110.606 233.48 110.3C233.001 110.051 232.522 109.802 232.043 109.551C231.453 109.243 231.974 108.347 232.564 108.653V108.655ZM232.656 98.4369V100.078C232.656 100.747 231.625 100.747 231.625 100.078V98.4369C231.625 97.7679 232.656 97.7679 232.656 98.4369ZM231.852 95.2157C232.157 94.7465 232.36 94.2549 232.475 93.7072C232.613 93.0517 233.607 93.3323 233.469 93.9833C233.337 94.6096 233.09 95.2044 232.74 95.7409C232.377 96.2976 231.487 95.7769 231.85 95.2157H231.852ZM231.353 91.2694C231.68 90.7778 232.005 90.2862 232.333 89.7946C232.7 89.2402 233.593 89.7609 233.224 90.3199C232.896 90.8115 232.571 91.3031 232.244 91.7947C231.876 92.3491 230.983 91.8283 231.353 91.2694ZM231.447 102.439C231.513 102.527 231.573 102.617 231.636 102.706C231.658 102.74 231.683 102.774 231.707 102.807C231.714 102.814 231.74 102.846 231.756 102.866C231.85 102.886 231.941 102.924 232.019 102.991C232.304 103.238 232.551 103.461 232.375 103.88C232.286 104.094 231.992 104.165 231.794 104.118C231.678 104.091 231.567 104.006 231.467 103.945C231.328 103.86 231.195 103.766 231.079 103.651C230.874 103.449 230.732 103.191 230.56 102.962C230.391 102.738 230.527 102.379 230.745 102.251C231.006 102.096 231.282 102.215 231.451 102.437L231.447 102.439ZM228.77 95.2224C229.153 94.6231 229.534 94.0215 229.917 93.4221C230.275 92.8609 231.166 93.3817 230.807 93.9474C230.424 94.5467 230.044 95.1483 229.661 95.7477C229.302 96.3089 228.411 95.7881 228.77 95.2224ZM226.541 99.5211C226.85 99.1709 227.024 98.7601 227.102 98.2999C227.149 98.0216 227.487 97.869 227.737 97.9363C228.024 98.0149 228.144 98.2999 228.097 98.576C227.988 99.2091 227.692 99.777 227.271 100.255C226.83 100.756 226.102 100.019 226.543 99.5211H226.541ZM226.253 105.492V103.523C226.253 102.855 227.285 102.855 227.285 103.523V105.492C227.285 106.161 226.253 106.161 226.253 105.492ZM227.961 109.631C227.476 109.14 227.207 108.484 227.213 107.791C227.22 107.122 228.251 107.122 228.244 107.791C228.244 107.977 228.275 108.15 228.331 108.314C228.402 108.356 228.467 108.419 228.516 108.514C228.601 108.677 228.685 108.839 228.77 109.003C229.039 109.519 228.382 110.058 227.961 109.631ZM229.511 105.319C229.273 105.458 228.944 105.378 228.805 105.133C228.739 105.012 228.67 104.893 228.603 104.772C228.578 104.729 228.563 104.686 228.552 104.644C228.46 104.466 228.369 104.291 228.278 104.114C228.149 103.865 228.213 103.55 228.463 103.402C228.694 103.265 229.039 103.339 229.168 103.589C229.344 103.928 229.52 104.266 229.696 104.605C229.825 104.855 229.761 105.169 229.511 105.317V105.319ZM229.881 121.874C229.812 121.439 229.745 121.003 229.676 120.568C229.632 120.289 229.743 120.009 230.037 119.928C230.284 119.861 230.627 120.013 230.672 120.292C230.741 120.727 230.807 121.163 230.876 121.598C230.921 121.877 230.81 122.157 230.516 122.238C230.269 122.305 229.926 122.153 229.881 121.874ZM231.028 124.202V124.858C231.028 125.526 229.997 125.526 229.997 124.858V124.202C229.997 123.533 231.028 123.533 231.028 124.202ZM231.173 127.482C231.092 127.773 230.814 127.888 230.538 127.845C230.068 127.771 229.823 127.138 230.09 126.752C230.251 126.521 230.538 126.413 230.796 126.566C230.939 126.649 231.037 126.817 231.052 126.986C231.166 127.12 231.215 127.322 231.173 127.482ZM231.03 114.788C230.627 114.437 230.226 114.089 229.823 113.739C229.612 113.555 229.638 113.192 229.823 113.005C230.03 112.797 230.342 112.821 230.551 113.005C230.754 113.18 230.957 113.358 231.159 113.533C231.231 113.555 231.3 113.596 231.364 113.661C231.496 113.791 231.627 113.923 231.758 114.054C232.235 114.529 231.527 115.221 231.03 114.788ZM231.988 113.003C231.823 112.776 231.952 112.422 232.172 112.291C232.431 112.139 232.714 112.251 232.878 112.478C233.132 112.826 233.506 113.059 233.914 113.174C234.553 113.353 234.279 114.354 233.64 114.175C232.956 113.984 232.406 113.573 231.988 113.001V113.003ZM234.927 117.829C234.406 117.544 233.941 117.158 233.571 116.691C233.397 116.471 233.355 116.173 233.571 115.957C233.751 115.775 234.125 115.737 234.299 115.957C234.453 116.15 234.618 116.325 234.798 116.48C234.903 116.487 235.012 116.527 235.11 116.615C235.257 116.747 235.404 116.88 235.551 117.012C236.003 117.421 235.421 118.099 234.927 117.827V117.829ZM236.562 120.765C236.435 120.734 236.346 120.671 236.285 120.59C236.058 120.483 235.836 120.359 235.624 120.22C235.07 119.856 235.586 118.956 236.145 119.322C236.506 119.56 236.882 119.744 237.292 119.874C237.924 120.074 237.664 121.032 237.018 120.875C236.867 120.837 236.713 120.801 236.562 120.763V120.765ZM240.051 128.678C238.987 128.687 237.998 129.123 236.838 129.378C237.178 128.667 237.136 127.964 237.314 127.309C237.448 126.819 237.617 126.348 237.907 125.926C238.043 125.726 238.185 125.618 238.432 125.724C239.882 126.353 241.332 126.977 242.881 127.646C241.924 128.171 241.093 128.667 240.051 128.676V128.678ZM242.915 125.111C242.347 124.927 241.81 124.667 241.323 124.323C241.093 124.162 240.989 123.872 241.138 123.612C241.269 123.383 241.614 123.264 241.844 123.425C242.082 123.591 242.327 123.737 242.583 123.861C242.659 123.861 242.739 123.877 242.819 123.917C242.984 123.998 243.149 124.079 243.311 124.159C243.839 124.42 243.463 125.286 242.915 125.109V125.111ZM245.85 30.9127C245.135 29.7903 244.173 28.9059 243.008 28.2751C242.53 28.0148 242.955 27.2807 243.436 27.5389C244.725 28.237 245.79 29.2426 246.58 30.4817C246.874 30.9441 246.144 31.3706 245.85 30.9127ZM248.01 25.1482C247.13 24.6274 246.251 24.1067 245.371 23.5836C244.901 23.3053 245.329 22.569 245.799 22.8473C246.678 23.3681 247.558 23.8889 248.438 24.4119C248.907 24.6903 248.48 25.4266 248.01 25.1482ZM250.627 37.8984C250.473 38.4236 249.658 38.1992 249.812 37.6716C249.97 37.1351 249.865 36.5784 249.493 36.1542C249.132 35.7457 249.729 35.1418 250.09 35.5526C250.66 36.1991 250.872 37.0633 250.627 37.8984ZM250.967 32.8387C250.446 31.6153 249.662 30.5827 248.627 29.7567C248.201 29.4155 248.803 28.8184 249.224 29.1551C250.308 30.0216 251.15 31.1282 251.695 32.41C251.907 32.9083 251.181 33.3415 250.965 32.841L250.967 32.8387ZM261.418 36.2777C262.137 37.2676 262.854 38.2598 263.574 39.2497C263.894 39.6942 263.162 40.1184 262.843 39.6807C262.124 38.6908 261.407 37.6986 260.688 36.7086C260.367 36.2642 261.1 35.8399 261.418 36.2777ZM253.827 36.9286C253.755 36.2148 253.684 35.501 253.615 34.7871C253.562 34.2417 254.406 34.2462 254.459 34.7871C254.53 35.501 254.602 36.2148 254.671 36.9286C254.724 37.4741 253.88 37.4696 253.827 36.9286ZM254.584 31.4559C254.156 31.1192 254.757 30.5199 255.18 30.8544C256.127 31.5996 256.931 32.4885 257.594 33.4987C257.897 33.9566 257.165 34.3831 256.864 33.9297C256.238 32.9801 255.472 32.1585 254.581 31.4582L254.584 31.4559ZM257.002 43.1376C256.955 42.5854 256.768 42.0781 256.468 41.6157C256.169 41.1555 256.902 40.729 257.198 41.1847C257.581 41.7773 257.79 42.435 257.848 43.1376C257.893 43.6853 257.049 43.6808 257.004 43.1376H257.002ZM258.283 39.0095C257.715 38.6212 257.243 38.1453 256.857 37.5729C256.55 37.1172 257.283 36.6907 257.588 37.1419C257.888 37.5886 258.269 37.9702 258.71 38.2732C259.158 38.5785 258.735 39.317 258.283 39.0095ZM260.253 41.3081C260.068 40.7896 260.886 40.5696 261.068 41.0814C261.405 42.0264 261.594 42.9939 261.661 43.9928C261.696 44.5406 260.852 44.5361 260.817 43.9928C260.757 43.068 260.565 42.1791 260.256 41.3059L260.253 41.3081ZM261.652 50.6283C261.609 49.8382 261.371 49.1131 260.957 48.4442C260.667 47.9773 261.398 47.5508 261.687 48.0132C262.182 48.8101 262.449 49.69 262.498 50.6261C262.527 51.1738 261.683 51.1715 261.654 50.6261L261.652 50.6283ZM262.547 54.166C262.427 53.6318 263.242 53.4051 263.362 53.9393C263.525 54.6576 263.525 55.3737 263.362 56.092C263.242 56.6263 262.427 56.3995 262.547 55.8653C262.676 55.2974 262.676 54.7317 262.547 54.166ZM263.536 85.5722C263.507 85.5767 263.498 85.5767 263.496 85.5745C263.491 85.579 263.482 85.5835 263.469 85.5902C263.493 85.5767 263.48 85.588 263.467 85.5992C263.467 85.5992 263.467 85.6014 263.467 85.6037C263.467 85.6037 263.462 85.6037 263.46 85.6059C263.484 85.8237 263.393 86.0392 263.164 86.102C262.961 86.1581 262.681 86.0324 262.645 85.8035C262.569 85.3388 262.821 84.8382 263.313 84.7484C263.538 84.708 263.767 84.8068 263.832 85.047C263.888 85.2535 263.761 85.5296 263.536 85.57V85.5722ZM264.438 45.2768C264.438 45.8268 263.594 45.8246 263.594 45.2768V43.9928C263.594 43.4429 264.438 43.4451 264.438 43.9928V45.2768ZM266.48 56.4175C266.691 56.3591 266.952 56.4893 266.998 56.7161C267.059 57.0034 267.121 57.2907 267.181 57.578C267.228 57.8048 267.117 58.0382 266.885 58.1011C266.673 58.1594 266.413 58.0292 266.366 57.8025C266.306 57.5152 266.244 57.2279 266.183 56.9405C266.137 56.7138 266.248 56.4804 266.48 56.4175ZM265.29 49.3443C265.29 48.7943 266.134 48.7966 266.134 49.3443V52.7698C266.134 53.3198 265.29 53.3175 265.29 52.7698V49.3443ZM265.29 73.628C265.384 73.1813 265.324 72.7525 265.152 72.3327C265.066 72.1195 265.248 71.8613 265.449 71.8097C265.689 71.7469 265.881 71.8928 265.967 72.1083C266.195 72.6672 266.228 73.2666 266.106 73.8547C265.994 74.3912 265.179 74.1622 265.29 73.628ZM266.56 81.2354C266.56 81.7854 265.716 81.7831 265.716 81.2354V80.5934C265.716 80.0434 266.56 80.0457 266.56 80.5934V81.2354ZM267.054 65.8948C266.702 66.3146 266.108 65.7085 266.457 65.2932C266.756 64.9341 266.707 64.4425 266.444 64.0855C266.119 63.6433 266.854 63.2191 267.174 63.6546C267.675 64.3347 267.582 65.264 267.054 65.8948ZM270.735 73.9512C270.359 74.6538 269.807 75.2307 269.132 75.6482C268.666 75.9356 268.243 75.1993 268.704 74.9119C269.261 74.5685 269.695 74.0993 270.005 73.5225C270.263 73.0398 270.993 73.4708 270.735 73.9534V73.9512ZM274.726 68.2653C274.652 68.3371 274.577 68.4089 274.503 68.4808C274.447 68.5324 274.389 68.5661 274.329 68.584C274.104 68.7636 273.88 68.9432 273.652 69.1228C273.472 69.2664 273.231 69.3001 273.056 69.1228C272.906 68.9724 272.877 68.6626 273.056 68.5212C273.414 68.2361 273.77 67.951 274.129 67.6637C274.309 67.52 274.55 67.4863 274.726 67.6637C274.884 67.823 274.891 68.1081 274.726 68.2653ZM278.525 63.9711C278.099 64.3257 277.674 64.6826 277.249 65.0396C277.073 65.1877 276.826 65.2147 276.652 65.0396C276.501 64.8869 276.476 64.5839 276.652 64.438C277.077 64.0833 277.503 63.7264 277.928 63.3695C278.104 63.2213 278.351 63.1944 278.525 63.3695C278.676 63.5221 278.701 63.8252 278.525 63.9711ZM284.887 59.8497C284.629 59.9822 284.375 59.9081 284.234 59.7128C284.141 59.7487 284.052 59.7914 283.963 59.8407C283.742 59.962 283.553 60.1124 283.377 60.2919C282.992 60.6803 282.395 60.0764 282.78 59.6903C283.228 59.2391 284.337 58.4086 284.978 58.9271C285.297 59.1853 285.252 59.6634 284.889 59.8497H284.887ZM290.973 58.5814H290.71C290.165 58.5814 290.167 57.7307 290.71 57.7307H290.973C291.519 57.7307 291.516 58.5814 290.973 58.5814Z" fill="#47727E"/>
<path d="M263.457 85.6022L263.461 85.5956C263.461 85.5956 263.457 85.5847 263.457 85.5781C263.457 85.5869 263.457 85.5935 263.457 85.6022Z" fill="#47727E"/>
<path d="M149.641 69.1952C149.272 69.0807 148.902 68.9662 148.535 68.8428C148.432 68.7395 148.305 68.6565 148.163 68.6003C147.711 68.423 147.341 68.2659 146.865 68.4746C146.528 68.6228 146.384 69.1054 146.477 69.4376C146.617 69.9427 147.138 70.1515 147.579 70.3108C148.112 70.5039 148.653 70.6722 149.194 70.8384C150.236 71.1594 150.681 69.5162 149.644 69.1952H149.641Z" fill="#47727E"/>
<path d="M139.455 68.4772H142.02C143.107 68.4772 143.109 66.7734 142.02 66.7734H139.455C138.368 66.7734 138.366 68.4772 139.455 68.4772Z" fill="#47727E"/>
<path d="M133.218 67.7065C132.332 68.0118 131.448 68.3171 130.561 68.6246C129.539 68.9771 129.978 70.6247 131.011 70.2678C131.897 69.9625 132.782 69.6572 133.668 69.3497C134.69 68.9973 134.251 67.3496 133.218 67.7065Z" fill="#47727E"/>
<path d="M124.187 73.6562C123.717 73.526 123.303 73.8179 123.147 74.2511C123.067 74.4756 122.955 74.6798 122.833 74.8751C122.65 74.9245 122.479 75.039 122.352 75.2433C122.207 75.4745 122.062 75.7079 121.918 75.9391C121.695 76.2961 121.811 76.7921 122.136 77.0391C122.492 77.3084 122.913 77.2523 123.245 76.9717C123.962 76.3701 124.463 75.5845 124.779 74.7045C124.935 74.2713 124.606 73.7707 124.189 73.6562H124.187Z" fill="#47727E"/>
<path d="M115.499 85.0704C115.067 84.8415 114.613 84.9851 114.344 85.3757C114.141 85.6698 113.938 85.9638 113.736 86.2601C113.484 86.6283 113.656 87.2209 114.039 87.4252C114.471 87.6541 114.925 87.5105 115.194 87.1199C115.397 86.8258 115.6 86.5295 115.802 86.2354C116.054 85.8673 115.882 85.2747 115.499 85.0704Z" fill="#47727E"/>
<path d="M142.91 72.738C141.725 72.8367 140.542 72.9377 139.358 73.0365C138.282 73.1263 138.271 74.8323 139.358 74.7403C140.542 74.6415 141.725 74.5405 142.91 74.4417C143.985 74.3519 143.996 72.6459 142.91 72.738Z" fill="#47727E"/>
<path d="M131.066 76.8703C130.376 77.6649 129.685 78.4618 128.995 79.2564C128.282 80.078 129.471 81.288 130.191 80.4619C130.881 79.6672 131.571 78.8704 132.262 78.0757C132.974 77.2541 131.785 76.0442 131.066 76.8703Z" fill="#47727E"/>
<path d="M129.427 85.9849C129.002 85.7582 128.534 85.8929 128.271 86.2902C128.073 86.5888 127.877 86.8873 127.679 87.1859C127.434 87.5585 127.594 88.1444 127.982 88.3509C128.407 88.5776 128.875 88.4429 129.138 88.0456C129.336 87.7471 129.532 87.4485 129.73 87.15C129.975 86.7773 129.815 86.1914 129.427 85.9849Z" fill="#47727E"/>
<path d="M144.164 76.9495C142.968 77.1807 141.832 77.5803 140.741 78.1213C139.819 78.5769 140.514 79.8273 141.391 79.6791C141.774 79.614 142.157 79.5489 142.54 79.4838C142.881 79.4255 143.066 79.2212 143.128 78.972C143.613 78.8149 144.108 78.6892 144.613 78.5904C145.68 78.3839 145.228 76.743 144.164 76.9472V76.9495Z" fill="#47727E"/>
<path d="M137.745 82.7096C137.124 83.7915 136.685 84.9588 136.458 86.1889C136.262 87.2597 137.89 87.7199 138.088 86.6424C138.288 85.5469 138.649 84.5346 139.203 83.5693C139.749 82.6198 138.29 81.76 137.745 82.7096Z" fill="#47727E"/>
<path d="M146.893 65.6687C147.104 65.3051 147.008 64.69 146.59 64.5037C145.701 64.1064 144.815 63.709 143.926 63.3095C143.51 63.1232 143.018 63.1883 142.771 63.6148C142.559 63.9784 142.655 64.5935 143.074 64.7798C143.962 65.1771 144.848 65.5744 145.737 65.974C146.153 66.1603 146.645 66.0952 146.893 65.6687Z" fill="#47727E"/>
<path d="M130.481 61.7031H126.339C125.253 61.7031 125.25 63.4069 126.339 63.4069H130.481C131.568 63.4069 131.57 61.7031 130.481 61.7031Z" fill="#47727E"/>
<path d="M114.618 68.4444C115.137 68.312 115.665 68.2065 116.202 68.1324C116.658 68.0696 116.897 67.4882 116.792 67.0841C116.663 66.5925 116.202 66.4264 115.752 66.4893C114.665 66.6419 113.616 66.9113 112.59 67.3019C111.572 67.6902 111.962 69.1425 113.04 68.945C113.403 68.8777 113.768 68.8126 114.131 68.7452C114.362 68.7026 114.52 68.5903 114.618 68.4444Z" fill="#47727E"/>
<path d="M116.268 71.7976C115.48 72.5922 114.689 73.3891 113.901 74.1837C113.131 74.9604 114.326 76.1658 115.097 75.3892C115.885 74.5945 116.676 73.7976 117.464 73.003C118.235 72.2263 117.039 71.0209 116.268 71.7976Z" fill="#47727E"/>
<path d="M206.37 14.7421C206.383 14.7466 206.394 14.7511 206.408 14.7556C205.595 15.0384 206.376 15.8577 206.343 16.6322C206.256 16.9262 206.096 17.135 205.831 17.2428C204.902 17.6176 203.949 16.1585 203.631 15.3325C203.319 15.3796 202.945 15.4514 202.562 15.5682C202.099 15.7096 202.001 15.4716 202.083 15.3482C202.128 15.2808 202.328 15.1574 202.502 15.0586C202.528 15.0429 202.56 15.0249 202.588 15.0092C202.629 14.9868 202.664 14.9666 202.693 14.9509C202.702 14.9464 202.709 14.9419 202.715 14.9396C202.753 14.9194 202.778 14.906 202.778 14.906H202.784C203.288 14.6523 204.067 14.374 204.982 14.4189C204.987 14.4189 204.991 14.4189 204.996 14.4189C205.428 14.4413 205.891 14.5378 206.367 14.7421H206.37Z" fill="#F9F9F9"/>
<path d="M124.047 124.816C124.047 124.816 132.333 123.795 132.242 131.221C132.242 131.221 133.07 124.444 140.804 124.769C140.804 124.769 142.555 133.355 133.44 132.983H130.494C130.494 132.983 123.588 133.353 124.049 124.816H124.047Z" fill="#47727E"/>
<path d="M133.089 106.234H131.953V132.996H133.089V106.234Z" fill="#47727E"/>
<path d="M132.919 118.341L132.039 119.064L127.35 113.158L128.229 112.438L132.919 118.341Z" fill="#47727E"/>
<path d="M133.021 125.554L132.14 126.274L127.35 120.267L128.229 119.547L133.021 125.554Z" fill="#47727E"/>
<path d="M132.189 118.528L133.07 119.25L137.581 113.657L136.7 112.935L132.189 118.528Z" fill="#47727E"/>
<path d="M132.117 125.45L132.997 126.171L137.613 120.361L136.731 119.641L132.117 125.45Z" fill="#47727E"/>
<path d="M127.349 114.676C128.577 114.676 129.572 113.673 129.572 112.436C129.572 111.198 128.577 110.195 127.349 110.195C126.122 110.195 125.127 111.198 125.127 112.436C125.127 113.673 126.122 114.676 127.349 114.676Z" fill="#47727E"/>
<path d="M127.349 121.551C128.577 121.551 129.572 120.548 129.572 119.311C129.572 118.073 128.577 117.07 127.349 117.07C126.122 117.07 125.127 118.073 125.127 119.311C125.127 120.548 126.122 121.551 127.349 121.551Z" fill="#47727E"/>
<path d="M137.613 114.676C138.84 114.676 139.835 113.673 139.835 112.436C139.835 111.198 138.84 110.195 137.613 110.195C136.386 110.195 135.391 111.198 135.391 112.436C135.391 113.673 136.386 114.676 137.613 114.676Z" fill="#47727E"/>
<path d="M137.613 121.551C138.84 121.551 139.835 120.548 139.835 119.311C139.835 118.073 138.84 117.07 137.613 117.07C136.386 117.07 135.391 118.073 135.391 119.311C135.391 120.548 136.386 121.551 137.613 121.551Z" fill="#47727E"/>
<path d="M132.52 104.192C133.551 104.192 134.387 103.35 134.387 102.311C134.387 101.272 133.551 100.43 132.52 100.43C131.49 100.43 130.654 101.272 130.654 102.311C130.654 103.35 131.49 104.192 132.52 104.192Z" fill="#47727E"/>
<path d="M140.831 100.608C140.831 98.7901 139.37 97.3175 137.566 97.3175C136.883 97.3175 136.248 97.5308 135.722 97.8944C135.814 97.5891 135.865 97.2681 135.865 96.9314C135.865 95.1132 134.404 93.6406 132.6 93.6406C130.797 93.6406 129.336 95.1132 129.336 96.9314C129.336 97.331 129.409 97.7104 129.538 98.065C128.975 97.5981 128.254 97.3198 127.47 97.3198C125.666 97.3198 124.205 98.7923 124.205 100.611C124.205 102.429 125.666 103.901 127.47 103.901C127.519 103.901 127.565 103.897 127.612 103.895C126.688 104.476 126.071 105.506 126.071 106.685C126.071 108.503 127.532 109.976 129.336 109.976C130.875 109.976 132.162 108.9 132.507 107.457C132.852 108.9 134.139 109.976 135.678 109.976C137.482 109.976 138.942 108.503 138.942 106.685C138.942 105.506 138.326 104.474 137.402 103.892C137.457 103.895 137.513 103.901 137.569 103.901C139.372 103.901 140.833 102.429 140.833 100.611L140.831 100.608ZM132.6 105.821C132.578 105.821 132.556 105.818 132.534 105.816C132.525 105.848 132.516 105.877 132.507 105.908C132.5 105.877 132.489 105.845 132.48 105.814C130.986 105.762 129.73 104.763 129.289 103.394C129.258 103.394 129.227 103.399 129.195 103.399C129.222 103.383 129.247 103.36 129.271 103.342C129.171 103.015 129.118 102.667 129.118 102.308C129.118 101.149 129.676 100.123 130.536 99.4837C130.536 99.4815 130.536 99.477 130.534 99.4747C130.536 99.4747 130.538 99.4792 130.541 99.4792C131.12 99.0505 131.83 98.7923 132.603 98.7923C134.527 98.7923 136.088 100.366 136.088 102.305C136.088 104.245 134.527 105.818 132.603 105.818L132.6 105.821Z" fill="#47727E"/>
</g>
</g>
<defs>
<clipPath id="clip0_154_3465">
<rect width="420" height="137" fill="white"/>
</clipPath>
<clipPath id="clip1_154_3465">
<rect width="4.00001" height="420" fill="white" transform="translate(0 137) rotate(-90)"/>
</clipPath>
<clipPath id="clip2_154_3465">
<rect width="197" height="134" fill="white" transform="translate(112)"/>
</clipPath>
</defs>
</svg>
